<?xml version="1.0" encoding="UTF-8" standalone="no"?>
<svg
   xmlns:dc="http://purl.org/dc/elements/1.1/"
   xmlns:cc="http://creativecommons.org/ns#"
   xmlns:rdf="http://www.w3.org/1999/02/22-rdf-syntax-ns#"
   xmlns:svg="http://www.w3.org/2000/svg"
   xmlns="http://www.w3.org/2000/svg"
   xmlns:sodipodi="http://sodipodi.sourceforge.net/DTD/sodipodi-0.dtd"
   xmlns:inkscape="http://www.inkscape.org/namespaces/inkscape"
   width="0.82768357in"
   height="0.82918036in"
   viewBox="0 0 74.491519 74.626234"
   id="svg2"
   version="1.1"
   sodipodi:docname="BPRAC Logo Squares 3 small.svg"
   inkscape:version="0.92.4 (5da689c313, 2019-01-14)">
  <sodipodi:namedview
     pagecolor="#ffffff"
     bordercolor="#666666"
     borderopacity="1"
     objecttolerance="10"
     gridtolerance="10"
     guidetolerance="10"
     inkscape:pageopacity="0"
     inkscape:pageshadow="2"
     inkscape:window-width="1920"
     inkscape:window-height="1001"
     id="namedview41"
     showgrid="false"
     inkscape:zoom="1.0074671"
     inkscape:cx="186.4317"
     inkscape:cy="-110.06819"
     inkscape:window-x="-9"
     inkscape:window-y="-9"
     inkscape:window-maximized="1"
     inkscape:current-layer="svg2" />
  <defs
     id="defs4" />
  <metadata
     id="metadata7">
    <rdf:RDF>
      <cc:Work
         rdf:about="">
        <dc:format>image/svg+xml</dc:format>
        <dc:type
           rdf:resource="http://purl.org/dc/dcmitype/StillImage" />
        <dc:title></dc:title>
      </cc:Work>
    </rdf:RDF>
  </metadata>
  <g
     id="g4168"
     transform="matrix(0.20681641,0,0,0.20682148,-0.13337281,-0.13633532)">
    <g
       transform="translate(0,-692.36215)"
       id="layer1">
      <rect
         y="1002.3551"
         x="251.61522"
         height="40"
         width="40"
         id="rect4136"
         style="opacity:0.73000004;fill:#000080;fill-opacity:1;stroke:none;stroke-width:3.46399999;stroke-miterlimit:4;stroke-dasharray:none;stroke-opacity:1" />
      <rect
         y="983.81238"
         x="61.234741"
         height="40"
         width="40"
         id="rect4136-1"
         style="opacity:0.73000004;fill:#ff6600;fill-opacity:1;stroke:none;stroke-width:3.46399999;stroke-miterlimit:4;stroke-dasharray:none;stroke-opacity:1" />
      <rect
         y="885.94806"
         x="75.90451"
         height="40"
         width="40"
         id="rect4136-8"
         style="opacity:0.73000004;fill:#ff6600;fill-opacity:1;stroke:none;stroke-width:3.46399999;stroke-miterlimit:4;stroke-dasharray:none;stroke-opacity:1" />
      <rect
         y="931.46136"
         x="113.88369"
         height="40"
         width="40"
         id="rect4136-6"
         style="opacity:0.73000004;fill:#000080;fill-opacity:1;stroke:none;stroke-width:3.46399999;stroke-miterlimit:4;stroke-dasharray:none;stroke-opacity:1" />
      <rect
         y="943.76929"
         x="12.778174"
         height="40"
         width="40"
         id="rect4136-62"
         style="opacity:0.73000004;fill:#ff6600;fill-opacity:1;stroke:none;stroke-width:3.46399999;stroke-miterlimit:4;stroke-dasharray:none;stroke-opacity:1" />
      <rect
         y="922.35504"
         x="42.763821"
         height="40"
         width="40"
         id="rect4136-9"
         style="opacity:0.73000004;fill:#000080;fill-opacity:1;stroke:none;stroke-width:3.46399999;stroke-miterlimit:4;stroke-dasharray:none;stroke-opacity:1" />
      <rect
         y="993.16998"
         x="103.33452"
         height="40"
         width="40"
         id="rect4136-015"
         style="opacity:0.73000004;fill:#ff6600;fill-opacity:1;stroke:none;stroke-width:3.46399999;stroke-miterlimit:4;stroke-dasharray:none;stroke-opacity:1" />
      <rect
         y="1002.3839"
         x="32.663315"
         height="40"
         width="40"
         id="rect4136-03"
         style="opacity:0.73000004;fill:#ff6600;fill-opacity:1;stroke:none;stroke-width:3.46399999;stroke-miterlimit:4;stroke-dasharray:none;stroke-opacity:1" />
      <rect
         y="903.0694"
         x="150.90092"
         height="40"
         width="40"
         id="rect4136-7"
         style="opacity:0.73000004;fill:#ff6600;fill-opacity:1;stroke:none;stroke-width:3.46399999;stroke-miterlimit:4;stroke-dasharray:none;stroke-opacity:1" />
      <rect
         y="883.66882"
         x="200.91528"
         height="40"
         width="40"
         id="rect4136-73"
         style="opacity:0.73000004;fill:#000080;fill-opacity:1;stroke:none;stroke-width:3.46399999;stroke-miterlimit:4;stroke-dasharray:none;stroke-opacity:1" />
      <rect
         y="1002.3695"
         x="150.90811"
         height="40"
         width="40"
         id="rect4136-72"
         style="opacity:0.73000004;fill:#000080;fill-opacity:1;stroke:none;stroke-width:3.46399999;stroke-miterlimit:4;stroke-dasharray:none;stroke-opacity:1" />
      <rect
         y="1003.0694"
         x="202.3295"
         height="40"
         width="40"
         id="rect4136-72-3"
         style="opacity:0.73000004;fill:#ff6600;fill-opacity:1;stroke:none;stroke-width:3.46399999;stroke-miterlimit:4;stroke-dasharray:none;stroke-opacity:1" />
      <rect
         y="948.78369"
         x="200.18665"
         height="40"
         width="40"
         id="rect4136-72-8"
         style="opacity:0.73000004;fill:#ff6600;fill-opacity:1;stroke:none;stroke-width:3.46399999;stroke-miterlimit:4;stroke-dasharray:none;stroke-opacity:1" />
      <rect
         y="991.57983"
         x="14.766739"
         height="40"
         width="40"
         id="rect4136-72-4"
         style="opacity:0.73000004;fill:#000080;fill-opacity:1;stroke:none;stroke-width:3.46399999;stroke-miterlimit:4;stroke-dasharray:none;stroke-opacity:1" />
      <rect
         y="953.0694"
         x="251.61522"
         height="40"
         width="40"
         id="rect4136-72-84"
         style="opacity:0.73000004;fill:#000080;fill-opacity:1;stroke:none;stroke-width:3.46399999;stroke-miterlimit:4;stroke-dasharray:none;stroke-opacity:1" />
      <rect
         y="902.35516"
         x="250.90092"
         height="40"
         width="40"
         id="rect4136-72-47"
         style="opacity:0.73000004;fill:#ff6600;fill-opacity:1;stroke:none;stroke-width:3.46399999;stroke-miterlimit:4;stroke-dasharray:none;stroke-opacity:1" />
      <rect
         y="854.48358"
         x="250.20103"
         height="40"
         width="40"
         id="rect4136-72-85"
         style="opacity:0.73000004;fill:#ff6600;fill-opacity:1;stroke:none;stroke-width:3.46399999;stroke-miterlimit:4;stroke-dasharray:none;stroke-opacity:1" />
      <rect
         y="1003.0622"
         x="299.49393"
         height="40"
         width="40"
         id="rect4136-72-34"
         style="opacity:0.73000004;fill:#ff6600;fill-opacity:1;stroke:none;stroke-width:3.46399999;stroke-miterlimit:4;stroke-dasharray:none;stroke-opacity:1" />
      <rect
         transform="scale(1,-1)"
         y="-991.66235"
         x="300.20819"
         height="40"
         width="40"
         id="rect4136-72-6"
         style="opacity:0.73000004;fill:#ff6600;fill-opacity:1;stroke:none;stroke-width:3.46399999;stroke-miterlimit:4;stroke-dasharray:none;stroke-opacity:1" />
      <rect
         transform="scale(1,-1)"
         y="-942.3551"
         x="301.61526"
         height="40"
         width="40"
         id="rect4136-72-6-5"
         style="opacity:0.73000004;fill:#ff6600;fill-opacity:1;stroke:none;stroke-width:3.46399999;stroke-miterlimit:4;stroke-dasharray:none;stroke-opacity:1" />
      <rect
         transform="scale(1,-1)"
         y="-893.78369"
         x="300.20822"
         height="40"
         width="40"
         id="rect4136-72-6-7"
         style="opacity:0.73000004;fill:#ff6600;fill-opacity:1;stroke:none;stroke-width:3.46399999;stroke-miterlimit:4;stroke-dasharray:none;stroke-opacity:1" />
      <rect
         transform="scale(1,-1)"
         y="-842.3551"
         x="300.20822"
         height="40"
         width="40"
         id="rect4136-72-6-1"
         style="opacity:0.73000004;fill:#ff6600;fill-opacity:1;stroke:none;stroke-width:3.46399999;stroke-miterlimit:4;stroke-dasharray:none;stroke-opacity:1" />
      <g
         transform="matrix(2.7804184,0,0,4.1616167,-120.16096,625.33487)"
         style="font-style:normal;font-variant:normal;font-weight:bold;font-stretch:normal;font-size:30.13267899px;line-height:100%;font-family:Tahoma;-inkscape-font-specification:'Tahoma, Bold';text-align:center;letter-spacing:-0.00469235px;word-spacing:0px;writing-mode:lr-tb;text-anchor:middle;opacity:1;fill:#000080;fill-opacity:0.72941176;stroke:none;stroke-width:1px;stroke-linecap:butt;stroke-linejoin:miter;stroke-opacity:1"
         id="flowRoot4451">
        <path
           style="font-style:normal;font-variant:normal;font-weight:bold;font-stretch:normal;font-size:30.13267899px;line-height:100%;font-family:Tahoma;-inkscape-font-specification:'Tahoma, Bold';text-align:center;letter-spacing:0.00469235px;word-spacing:-0.00469235px;writing-mode:lr-tb;text-anchor:middle;fill:#000080;fill-opacity:0.72941176"
           id="path4186"
           d="m 139.95117,18.767578 c -3.28595,0 -5.89965,1.033856 -7.84179,3.103516 -1.93234,2.059851 -2.89844,4.826508 -2.89844,8.298828 0,3.599835 0.9661,6.395529 2.89844,8.386719 1.93233,1.98138 4.54217,2.970703 7.82812,2.970703 1.04954,0 1.87236,-0.05226 2.4707,-0.160156 0.59834,-0.107897 1.24112,-0.266671 1.92774,-0.472657 0.5591,-0.16675 1.10314,-0.366151 1.63281,-0.601562 0.52967,-0.24522 0.99627,-0.46207 1.39844,-0.648438 v -5.148437 h -0.5 c -0.27465,0.24522 -0.59797,0.524008 -0.97071,0.83789 -0.37273,0.313882 -0.80448,0.623661 -1.29492,0.927735 -0.4512,0.294264 -1.00687,0.563373 -1.66406,0.808593 -0.65719,0.235413 -1.34837,0.353516 -2.07422,0.353516 -0.69643,0 -1.39728,-0.12392 -2.10351,-0.36914 -0.69643,-0.245221 -1.32953,-0.642113 -1.89844,-1.191407 -0.58853,-0.568911 -1.06481,-1.314299 -1.42774,-2.236328 -0.36292,-0.931837 -0.54297,-2.079934 -0.54297,-3.443359 0,-1.294764 0.17036,-2.417686 0.51368,-3.369141 0.35311,-0.951455 0.80422,-1.706522 1.35351,-2.265625 0.59834,-0.617955 1.22758,-1.049702 1.88477,-1.294922 0.667,-0.255029 1.39689,-0.382812 2.1914,-0.382812 0.667,0 1.30397,0.114241 1.91211,0.339844 0.61796,0.215793 1.18331,0.479086 1.69336,0.792968 0.51006,0.313882 0.96503,0.639157 1.36719,0.972656 0.40217,0.323691 0.73712,0.60248 1.00195,0.837891 h 0.5586 v -5.222656 c -0.36293,-0.186368 -0.8392,-0.407081 -1.42774,-0.662109 -0.58852,-0.25503 -1.13256,-0.456383 -1.63281,-0.603516 -0.63757,-0.176559 -1.30553,-0.314021 -2.00195,-0.41211 -0.69643,-0.09809 -1.48053,-0.146484 -2.35352,-0.146484 z m -92.519529,0.425781 v 21.908203 h 8.767578 c 1.520366,0 2.771072,-0.137462 3.751953,-0.412109 0.99069,-0.274647 1.898715,-0.73543 2.722656,-1.382812 0.696426,-0.539485 1.250139,-1.220982 1.66211,-2.044922 0.411969,-0.82394 0.61914,-1.780362 0.61914,-2.869141 0,-1.49094 -0.408525,-2.67389 -1.222656,-3.546875 -0.814132,-0.882793 -1.898337,-1.465545 -3.251953,-1.75 v -0.117187 c 0.941646,-0.392353 1.677355,-1.006095 2.207031,-1.839844 0.539485,-0.833749 0.810547,-1.784354 0.810547,-2.853516 0,-0.922028 -0.197491,-1.737124 -0.589844,-2.443359 -0.382543,-0.706235 -0.965295,-1.269628 -1.75,-1.691406 -0.725852,-0.392353 -1.506094,-0.647919 -2.339844,-0.765625 -0.82394,-0.127515 -2.039792,-0.191407 -3.648437,-0.191407 z m 20.660156,0 v 21.908203 h 5.503906 v -7.166015 h 2.882813 c 0.784705,0 1.491376,-0.06389 2.11914,-0.191406 0.637574,-0.127515 1.226141,-0.303695 1.765625,-0.529297 0.539485,-0.225603 1.029307,-0.500528 1.470703,-0.824219 0.451206,-0.323691 0.863593,-0.67605 1.236328,-1.058594 0.608147,-0.617955 1.074747,-1.388518 1.398438,-2.310547 0.323691,-0.922028 0.484375,-1.891992 0.484375,-2.912109 0,-1.265337 -0.224576,-2.355359 -0.675781,-3.267578 -0.451206,-0.922029 -1.088169,-1.657737 -1.91211,-2.207031 -0.74547,-0.50025 -1.579924,-0.862288 -2.501953,-1.087891 -0.912219,-0.235412 -2.000287,-0.353516 -3.265625,-0.353516 z m 19.839844,0 v 21.908203 h 5.472656 V 33.068359 H 95.375 l 6.10742,8.033203 h 5.99219 0.7168 4.80078 l 1.36914,-4.472656 h 6.88476 l 1.36914,4.472656 h 5.66407 L 120.87891,19.193359 H 114.875 l -7.18555,21.273438 -6.86914,-8.679688 c 1.26534,-0.617955 2.27402,-1.446593 3.0293,-2.486328 0.75528,-1.049543 1.13477,-2.412536 1.13477,-4.089843 0,-1.186867 -0.23235,-2.162648 -0.69336,-2.927735 -0.46102,-0.774896 -1.08249,-1.411859 -1.86719,-1.912109 -0.76509,-0.480632 -1.59954,-0.794275 -2.501955,-0.941406 -0.902411,-0.156942 -1.961441,-0.236329 -3.177734,-0.236329 z m -35.027344,4.017579 h 0.382812 c 0.980882,0 1.716591,0.0097 2.207032,0.0293 0.50025,0.0098 0.931995,0.09306 1.294921,0.25 0.382545,0.16675 0.661332,0.435859 0.837891,0.808594 0.186367,0.372735 0.279297,0.736727 0.279297,1.089844 0,0.480632 -0.08325,0.900746 -0.25,1.263672 -0.16675,0.362926 -0.470713,0.64753 -0.912109,0.853515 -0.402162,0.186366 -0.795191,0.290927 -1.177735,0.310547 -0.372735,0.01962 -1.029057,0.0293 -1.970703,0.0293 h -0.691406 v -4.634765 z m 40.5,0.01367 h 1.839844 c 0.627764,0 1.152439,0.01936 1.574218,0.05859 0.421779,0.03923 0.803176,0.132165 1.146485,0.279297 0.49044,0.215794 0.838936,0.525573 1.044922,0.927734 0.215794,0.392353 0.324218,0.862816 0.324218,1.41211 0,0.617955 -0.08907,1.11941 -0.265625,1.501953 -0.16675,0.382544 -0.426179,0.709728 -0.779297,0.984375 -0.372735,0.304073 -0.829655,0.505428 -1.36914,0.603516 -0.529676,0.08828 -1.176319,0.132812 -1.941406,0.132812 h -1.574219 v -5.900391 z m -19.808594,0.05859 H 74.375 c 0.814131,0 1.456911,0.01936 1.927734,0.05859 0.480632,0.02943 0.980133,0.15721 1.5,0.382812 0.411971,0.16675 0.766283,0.476529 1.060547,0.927735 0.294265,0.441396 0.441407,0.969935 0.441407,1.58789 0,0.667 -0.06971,1.197491 -0.207032,1.589844 -0.127514,0.392353 -0.377264,0.769887 -0.75,1.132813 -0.176558,0.176558 -0.432125,0.339196 -0.765625,0.486328 -0.32369,0.137321 -0.631516,0.23025 -0.925781,0.279297 -0.343309,0.05885 -0.746017,0.09371 -1.207031,0.103515 -0.461015,0.0098 -0.950837,0.01367 -1.470703,0.01367 h -0.382813 v -6.5625 z m 44.207027,2.148438 2.23633,7.224609 h -4.47265 z m -64.898433,6.166015 h 1.015625 c 0.980881,0 1.75917,0.0097 2.33789,0.0293 0.588529,0.0098 1.051266,0.07756 1.384766,0.205078 0.549293,0.196177 0.959728,0.486598 1.234375,0.869141 0.274647,0.382544 0.412109,0.911082 0.412109,1.58789 10e-7,0.529676 -0.118103,1.005956 -0.353515,1.427735 -0.225603,0.41197 -0.587641,0.725612 -1.087891,0.941406 -0.568911,0.245218 -1.128441,0.376864 -1.677734,0.396485 -0.549294,0.01962 -1.538617,0.0293 -2.970703,0.0293 h -0.294922 v -5.486328 z"
           inkscape:connector-curvature="0" />
      </g>
      <rect
         y="696.48749"
         x="4.1110296"
         height="353.89209"
         width="353.24957"
         id="rect4459"
         style="opacity:0.27000002;fill:none;fill-opacity:1;stroke:#000000;stroke-width:6.93228912;stroke-miterlimit:4;stroke-dasharray:none;stroke-opacity:1" />
      <rect
         transform="scale(1,-1)"
         y="-792.04999"
         x="300.30872"
         height="40"
         width="40"
         id="rect4136-72-6-1-6"
         style="opacity:0.73000004;fill:#ff6600;fill-opacity:1;stroke:none;stroke-width:3.46399999;stroke-miterlimit:4;stroke-dasharray:none;stroke-opacity:1" />
      <rect
         y="803.47137"
         x="249.39342"
         height="40"
         width="40"
         id="rect4136-72-85-8"
         style="opacity:0.73000004;fill:#ff6600;fill-opacity:1;stroke:none;stroke-width:3.46399999;stroke-miterlimit:4;stroke-dasharray:none;stroke-opacity:1" />
      <rect
         transform="scale(1,-1)"
         y="-743.96667"
         x="299.80261"
         height="40"
         width="40"
         id="rect4136-72-6-1-6-9"
         style="opacity:0.73000004;fill:#ff6600;fill-opacity:1;stroke:none;stroke-width:3.46399999;stroke-miterlimit:4;stroke-dasharray:none;stroke-opacity:1" />
      <rect
         y="953.22369"
         x="141.86646"
         height="40"
         width="40"
         id="rect4136-8-1"
         style="opacity:0.73000004;fill:#ff6600;fill-opacity:1;stroke:none;stroke-width:3.46399999;stroke-miterlimit:4;stroke-dasharray:none;stroke-opacity:1" />
      <rect
         y="872.76794"
         x="126.76598"
         height="40"
         width="40"
         id="rect4136-72-1"
         style="opacity:0.73000004;fill:#000080;fill-opacity:1;stroke:none;stroke-width:3.46399999;stroke-miterlimit:4;stroke-dasharray:none;stroke-opacity:1" />
    </g>
  </g>
  <flowRoot
     style="font-style:normal;font-weight:normal;font-size:40px;line-height:125%;font-family:sans-serif;letter-spacing:0px;word-spacing:0px;fill:#000000;fill-opacity:1;stroke:none;stroke-width:1px;stroke-linecap:butt;stroke-linejoin:miter;stroke-opacity:1"
     id="flowRoot4166"
     xml:space="preserve"
     transform="matrix(0.21037934,0,0,0.21037934,-1.0982396,-0.45964542)"><flowRegion
       id="flowRegion4168"><rect
         y="-135.76271"
         x="-24.40678"
         height="42.711864"
         width="144.91525"
         id="rect4170" /></flowRegion><flowPara
       id="flowPara4172" /></flowRoot></svg>
